<?xml version="1.0" encoding="utf-8"?>
<!-- Generator: Adobe Illustrator 28.0.0, SVG Export Plug-In . SVG Version: 6.00 Build 0)  -->
<svg version="1.1" id="Layer_1" xmlns="http://www.w3.org/2000/svg" xmlns:xlink="http://www.w3.org/1999/xlink" x="0px" y="0px"
	 viewBox="0 0 512 512" style="enable-background:new 0 0 512 512;" xml:space="preserve">
<style type="text/css">
	.st0{fill:#ACB78E;}
</style>
<g>
	<path class="st0" d="M267.5,502.8c-0.5,0.1-1.4,0.1-2.5,0.1c0.1,0,0.3,0.1,0.5,0.1C266.4,502.9,267.6,502.8,267.5,502.8z"/>
	<path class="st0" d="M265.7,503c0,0,0,0-0.2,0C264.5,503,263.9,503.1,265.7,503z"/>
	<path class="st0" d="M403.8,339.2c0-4.4-0.2-8.8-0.7-13.2c-0.2-2-0.5-4.1-0.7-6.4v-9.1c0.1-1.9,0.1-3.8,0-5.7v-2.7
		c0-10,0.2-19.8,0.5-29.6c0.5-17.5,0.9-35.3,1.1-53l-0.5-0.2c0-8.2,0.2-16.4,0.2-24.6c0-3.4-0.2-6.6-0.5-10
		c-0.2-8.4-0.7-16.6-0.9-25c0-2.5-0.2-5-0.2-7.7c0-2.7-0.2-5.2-0.5-8c-1.3-14-4.6-27.7-10-40.7c-0.7-1.6-1.1-3.2-1.8-4.8l-2.3-4.6
		c-1.6-3-3-6.1-4.8-9.1s-3.6-5.7-5.5-8.6l-1.4-2l-0.7-0.9l-0.7-1.1l-5.9-8c-1.9-2.7-4.1-5.2-6.4-7.5l-3.2-3.6l-1.6-1.8l-1.8-1.8
		c-1.8-1.8-3.6-3.4-5.5-5l-2.5-2.5l-3-2.3c-7.2-5.6-14.8-10.7-22.8-15.2c-2-1.1-3.9-2.3-5.9-3.4c-2-1.1-4-2.1-6.1-3l-6.1-2.5
		c-2-0.7-4.1-1.8-6.1-2.3c-3.9-1.1-7.7-2.5-11.8-3.6c-4.3-0.7-8.6-1.4-12.7-2c-1.4-0.2-2.5-0.2-3.9-0.5l-3.9-0.2l-7.7-0.5h-2.3
		l-2,0.2L249.5,7h-1.4c-2-0.5-4.1-0.6-6.1-0.5l-8.6,0.7c-1.4,0.2-3,0.2-4.3,0.5l-4.3,0.9c-2.3,0.5-4.6,0.9-6.6,1.4
		c-2.7,0.9-5.2,2-8,3.2c-2.7,1.1-5.2,2.3-8,3.4l-7.7,4.1c-2.6,1.1-5.2,2.5-7.5,4.1c-8.3,5.3-16.2,11.2-23.7,17.5l-4.8,4.1
		c-1.6,1.4-3.1,2.9-4.6,4.6c-3,3.4-5.9,6.8-8.4,10.2c-2,3.2-4.1,5.9-6.1,8.9c-0.5,0.7-1.1,1.4-1.6,2l-1.4,2.3l-2.7,4.6
		c-1.1,1.8-2.5,3.9-3.6,5.7c-0.9,1.7-1.7,3.4-2.3,5.2c-1.4,3.8-3.1,7.5-5.2,10.9c-0.9,1.8-1.8,4.1-2.7,6.1c-0.7,1.5-1.3,3-1.8,4.6
		l-1.4,4.8c-0.9,3.2-1.6,6.4-2.5,9.6l-1.4,10l-0.7,4.8c-0.2,1.6-0.3,3.2-0.2,4.8c-0.2,2-0.3,3.9-0.2,5.9v6.6l0.5,11.8
		c0,4.4,0.2,8.8,0.7,13.2c0.2,2,0.5,4.1,0.7,6.4v9.1c-0.1,1.9-0.1,3.8,0,5.7v2.7c0,10-0.2,19.8-0.5,29.6c-0.5,17.5-0.7,35.3-1.1,53
		l0.5,0.2l-0.2,24.6c0,3.2,0.2,6.6,0.5,10c0.2,8.4,0.7,16.6,0.9,25c0,2.5,0.2,5,0.2,7.7c0,2.7,0.2,5.2,0.5,7.7
		c1.3,14,4.6,27.7,9.8,40.7c0.7,1.6,1.1,3.2,1.8,4.8l2.3,4.5c1.6,3,3,6.1,4.8,9.1l5.5,8.6l1.4,2l0.7,0.9c0.2,0.5,0.5,0.7,0.7,1.1
		l5.9,8c1.9,2.7,4.1,5.2,6.4,7.5l3.2,3.6l1.6,1.8l1.8,1.8c1.8,1.8,3.6,3.4,5.5,5l2.7,3l3,2.3c7.3,5.5,14.9,10.6,22.8,15.2
		c2,1.1,3.9,2.3,5.9,3.2c2,1.1,4,2.1,6.1,3l6.1,2.5c2,0.9,4.1,1.8,6.1,2.5c3.9,1.1,7.7,2.5,11.8,3.6c4.1,0.7,8.4,1.4,12.7,2
		c1.4,0.2,2.5,0.2,3.9,0.5l3.9,0.2l7.7,0.5h2c0.9,0,3,0.1,4.8,0.1c-0.5-0.1-0.5-0.2,3.4-0.1c1.7,0.2,3.5,0.2,5.2,0l8.6-0.7
		c1.4-0.2,3-0.2,4.3-0.5l4.3-0.9c2.3-0.5,4.3-0.9,6.6-1.6c2.7-0.9,5.2-2,8-3.2c2.7-1.1,5.2-2.3,8-3.4l7.7-3.9
		c2.7-1.1,5.3-2.5,7.7-4.1c8.3-5.3,16.2-11.2,23.7-17.5l4.8-4.1c1.6-1.4,3.2-3,4.8-4.6c3-3.4,5.9-6.8,8.4-10.2
		c2-3.2,4.1-5.9,6.1-8.9c0.6-0.7,1.1-1.5,1.6-2.3l1.4-2.3c0.9-1.6,1.8-3,2.7-4.6c0.9-1.6,2.5-3.6,3.6-5.7c0.9-1.7,1.7-3.4,2.3-5.2
		c1.4-3.8,3.1-7.4,5-10.9l2.7-6.1c0.7-1.5,1.4-3,1.8-4.5l1.4-4.8c0.9-3.2,1.6-6.4,2.5-9.6l1.4-10l0.7-5c0.2-1.6,0.3-3.2,0.2-4.8
		c0.2-2,0.3-3.9,0.2-5.9V351C404,347.2,404,343.1,403.8,339.2z M298,485.2c-3.9,1.3-7.8,2.4-11.8,3.2c-4.3,0.2-9.3,1.4-13.4,1.4
		c-4.1,0-10,0.7-14.1,0.7H257l-2-0.2l-3.9-0.2l-3.9-0.2c-1.2,0-2.4,0-3.6-0.2c-1.6-0.2-3.2-0.2-4.8-0.5l-1.4-0.2l-7.5-1.1l-7.5-2
		c-5-1.1-9.7-2.9-14.4-4.3l0.3-0.6c-11.5-4.9-15.2-21.8-15.2-29.3v-54.8c0-3.6,2.9-6.5,6.4-6.6h121.7c3.6,0,6.6,3,6.6,6.6v54.8
		c0,9.9-8.7,23.1-16.4,28.3l0,0c-0.6,0.3-1.2,0.5-1.8,0.8C305.7,482.1,301.8,483.9,298,485.2z M230.8,259.3c-0.2,0-0.4,0.1-0.6,0h-2
		c-47.3,3.6-44.4-46.2-46.2-81c0-1.4,1.1-2.6,2.5-2.7c0.8,0,1.5,0.3,2,0.9c3.2,3.9,4.3,10.5,5.2,17.3c1.6,10.9,1.6,22.1,3.4,33
		c2.7,16.2,15.5,27.1,34.6,25.9c1.2-0.1,2.4,0.8,2.5,2c0,0,0,0,0,0v2.3C232.5,258.1,231.8,259.1,230.8,259.3z M228.1,270.5
		c3,0,3.9,1.6,3.9,2.5c0.3,1.5-0.7,2.9-2.2,3.2c-0.3,0-0.5,0.1-0.8,0c-13.7,0.2-29.3,0.7-40.5-7.3c-11.1-8-14.8-21.4-16.8-34.1
		c-1.4-8.6-2.3-17.7-3-26.6c-0.4-5.2-0.3-10.3,0.2-15.5c0.1-1.4,1.4-2.4,2.7-2.3c1.2,0.2,2.1,1.1,2.3,2.3
		C176,231.4,177.4,270.9,228.1,270.5z M240,362.2c-0.7-12.5-0.7-24.3-0.5-37.1c0.5-27.3,4.8-53.9,3.6-81.4
		c-1.1-28.7-3-57.1-2.3-85.8c0.2-11.6,0.9-17.3,1.8-28.9c0.9-10.7,4.8-17.7,11.1-21.8c1.5-1,3.5-0.6,4.5,0.9c0,0,0,0,0,0
		c0.5,0.6,0.6,1.3,0.5,2c-1.4,55.1-1.6,103.3-4.3,159c-1.1,24.1-1.8,48.2-2,72.3c0,12.5-0.7,24.8-0.5,37.3c0,0.8,0.1,1.5,0.1,2.3
		l-12.7,0C239.8,374.9,240.3,368.7,240,362.2z M263.9,350.3c0.2-26.8,0.5-53.9,1.6-80.8c1.4-29.8,2-59.6,1.8-89.4
		c-0.5-25.9,2-51.6,2-77.6c0.1-1.8,1.6-3.2,3.4-3.2c0,0,0,0,0,0c0.8,0.1,1.6,0.4,2.3,0.9c6.4,6.6,6.8,18,7.3,27.1
		c0.5,11.1,1.4,22.3,1.6,33.4c0.9,30.7-0.7,61.4-1.8,92.1c-0.9,26.6-1.6,53.7,1.1,80.5c1.4,13.8,1.6,27.6,0.7,41.4
		c-0.2,2-0.2,4.1-0.2,6.1l-20.2,0C263.1,370.8,263.6,360.6,263.9,350.3z M333.5,259.1c0-12.5-0.2-21.8-0.5-34.4
		c0.2-6.1,3.2-5.5,5.9,0c5.7,11.1,1.1,34.4,1.6,42.5c0.7,14.1-1.4,28.9-15,37.1c-3.6,2.4-7.5,4.2-11.6,5.5c-2.4,0.7-4.8,1.1-7.3,1.4
		c-3.2,0.5-8.9,1.6-11.1-1.4c-0.9-1.6-0.8-3.5,0.2-5c2-2.3,6.8-1.6,9.6-2.3c3.2-0.7,6.3-1.6,9.3-2.7c6.1-2.5,11.2-6.9,14.6-12.5
		C334.2,278.7,333.5,268.7,333.5,259.1z M323.7,269.6c-0.2,6.6-3.4,12.7-8.6,16.6c-5.3,3.4-11.4,5.5-17.7,5.9
		c-1.4,0.2-3.9,0.9-4.1-1.1c-0.2-2.5,6.1-3.2,8-3.9c2.3-0.6,4.4-1.7,6.1-3.2c4.3-3.6,5.9-9.3,7.1-14.6c0.2-2,0.7-4.1,0.9-6.1
		c0.5-4.3-0.2-22.5,3.6-35.7c0.2-1,1.2-1.7,2.2-1.4c0.1,0,0.2,0,0.3,0.1c0.8,0.3,1.5,1,1.6,1.8C324.4,241.8,324.6,255.7,323.7,269.6
		z M391.7,163.1c-0.2,1.8-0.3,3.6-0.2,5.5v28.9c0,13,0,26.2-0.2,39.1c0,9.8-0.5,19.8-0.5,29.6c0,6.8,0.2,13.4,0.2,20.2
		c0,3-0.2,5.7-0.2,8.6c-0.2,5,0,10.7,0,15.9s0.2,10.7,0.2,16.2l0.2,22.1v3.9v1.1l-0.2,5.5l-0.2,5.5c0,0.9,0,1.8-0.2,2.7l-0.5,2.5
		c-0.5,3.6-0.9,7.5-1.6,11.1l-2.7,11.4c-4.1,14.4-10.5,28.1-18.9,40.5c-2.3,3.4-4.8,6.6-7.3,9.8c-0.5,0.5-0.7,0.9-1.1,1.1
		c-1.4,1.6-2.7,3.2-4.3,4.8l-2,2.5c-0.8,0.7-1.6,1.5-2.3,2.3c-1.6,1.4-3.2,3-4.6,4.3s-3.2,2.5-4.8,3.6c-1.8,1.6-3.9,3.4-5.9,5
		l-1.1,0.9c-0.4,0.3-0.8,0.5-1.2,0.7c2.8-5.5,4.6-11.4,4.6-16.9v-54.8c0-8.6-7.1-15.7-15.7-15.7l-25.9,0c0-0.8,0.1-1.7,0.2-2.5
		c0.6-12.5,0.5-25-0.5-37.5c-0.5-5.2-0.9-10.2-1.1-15.5c-0.1-2.4,1.7-4.4,4-4.5c0,0,0,0,0.1,0h1.8c21.8,0.9,39.8-3.6,47.1-22.3
		c5.9-15.2,3.6-33.9,3.9-49.8c0-9.6,0.2-19.3-2.7-28.7c-5.2-16.8-24.8-22.8-34.8-5.7c-5.5,9.3-4.8,21.4-5,31.9
		c0.2,7.4-0.5,14.8-2,22.1c-1.1,5-5,8.8-10,9.8c-1.1,0.3-2.2-0.5-2.5-1.6c0,0,0,0,0,0v-0.5c0.2-13.2,0.2-26.4,0.9-39.6
		c2-34.1,0.5-68.3-0.7-102.4c-0.5-15.5-0.9-32.8-12.5-42.1c-2.8-2.9-6.6-4.6-10.7-4.5c-20.9,0-34.1,6.4-37.1,29.1
		c-4.1,32.3-3,65.7-2.3,98.3c0.2,8.4,0.9,11.8,1.1,20c-0.2,0,1.1,9.6-1.6,10.2c-32.8,9.1-25-48.2-30.3-65.3
		c-2-6.8-6.1-13.7-13.2-16.4c-7.6-2.6-16.1-0.7-21.8,5c-0.5,0.7-0.9,1.1-1.4,1.8c-4.6,8.2-4.6,16.6-5,25.5
		c-0.5,14.1,0.3,28.2,2.3,42.1c2.3,15.2,7.7,30.5,20.7,39.8c13,9.3,28,10.2,43.2,10.2c3.1,0,5.7,2.5,5.7,5.6c0,0,0,0.1,0,0.1v0.5
		c-0.7,6.8-1.4,13.4-1.8,20.2c-1.1,17.1,1.4,33.7,1.8,50.7c0.2,5.4-0.2,10.6-0.5,15.9l-31.2,0c-8.5,0.2-15.4,7.2-15.4,15.7v54.8
		c0,5,1,11.4,3.4,17.7c-0.9-0.7-1.8-1.3-2.7-2c-1.6-1.1-3-2.5-4.6-3.6l-5.5-4.1c-1.8-1.4-3.4-3.2-5.2-4.5l-3-2.5
		c-8.2-8.1-15.2-17.3-20.9-27.3c-1.3-2.5-2.7-4.9-4.3-7.3c-1.6-2.3-2.5-5-3.9-7.3c-2.6-4.9-4.8-10-6.6-15.2l-0.9-2.5l-0.7-2.7
		l-1.6-5.2l-1.6-5.2l-0.9-5.5c-0.5-3-1.4-5.7-1.8-8.6c-0.5-6.7-0.4-13.4,0.2-20c0-1.6,0.2-3.6,0.2-5.5v-28.9c0-13,0.2-26.2,0.2-39.1
		c0-9.8,0.5-19.8,0.5-29.6c0-6.8,0-13.4-0.2-20.2c0-2.7,0.2-5.7,0.2-8.6c0.2-5,0-10.7,0-15.9c0-5.2-0.2-10.7-0.2-16.2l0.2-21.4v-5.2
		l0.2-5.5l0.2-5.5c0-0.9,0-1.8,0.2-2.7l0.5-2.5c0.5-3.6,0.9-7.5,1.6-11.1l2.7-11.4c4.1-14.4,10.5-28.1,18.9-40.5
		c2.3-3.4,4.8-6.6,7.3-9.8c0.5-0.5,0.7-0.9,1.1-1.1c1.4-1.6,2.7-3.2,4.3-4.8l2-2.5c0.8-0.7,1.6-1.5,2.3-2.3c1.6-1.4,3.2-3,4.6-4.3
		c1.6-1.3,3.2-2.6,5-3.6c1.8-1.6,3.9-3.4,5.9-5l1.1-0.9c3.9-2.5,7.7-4.8,11.6-7.3c4.1-2,8.2-4.1,12.3-5.9c3.9-1.4,7.7-3.2,11.6-4.5
		c3.8-1.4,7.8-2.5,11.8-3.2c4.3-0.2,9.3-1.1,13.4-1.4c4.3,0.5,10-0.7,14.1-0.7h1.8l2,0.2l3.9,0.2l3.9,0.2c1.2,0,2.4,0,3.6,0.2
		l4.8,0.5l1.4,0.2l7.5,1.1l7.5,2c5,1.1,9.8,3,14.6,4.3c1.8,0.4,3.4,1.1,5,2l5.7,3.2l3.6,2c1.4,1.1,3,2.3,4.3,3.4
		c1.4,1.1,3,2.3,4.5,3.4c1.6,1.1,3,2.5,4.6,3.6l5.5,4.1c1.8,1.4,3.4,3.2,5.2,4.5l3,2.5c8.2,8.1,15.2,17.3,20.9,27.3
		c1.3,2.5,2.7,4.9,4.3,7.3c1.6,2.3,2.5,5,3.9,7.3c2.6,4.9,4.8,10,6.6,15.2l0.9,2.5l0.7,2.7l1.4,5.2l1.4,5.2l0.9,5.2
		c0.5,3,1.4,5.7,1.8,8.6C392.4,149.7,392.2,156.3,391.7,163.1z"/>
	<path class="st0" d="M157.6,329.9l15.9,1.4l-9.3,10.9c5-1.1,7.1-5.9,12.7-8.2v21.4h2.3V334c5.2,2.7,7.3,7.5,12.5,9.1
		c-2.7-4.6-7.1-7.1-9.1-11.8l15-1.4c-4.8-2.7-10.2-0.7-15.2-3c3-3.9,6.8-6.4,8.2-11.1l-10.9,9.3c-1.4-8,0.2-15-1.6-21.8h-1.6v22.1
		l-11.4-9.6l-0.9,0.9l9.3,10.7l-15.9,1.1V329.9z"/>
	<path class="st0" d="M351.4,126.3c-5,1.1-7.3,5.9-12.7,8.4v-21.4h-2.3v21.4c-5.2-2.7-7.3-7.3-12.7-9.1c3,4.8,7.3,7.3,9.6,12.3
		l-17.5,0.7c6.6,3,12.1,0.9,17.1,3c-2.5,4.3-6.6,6.6-9.1,12.5l13.4-11.6v22.8l2.3-0.2v-21.6c5,2.7,7.1,7.3,12.1,8.4l-8.9-10.5
		c5.5-1.6,10.7,0.2,15.9-2.5c-5.5-1.6-10.7,0.2-16.2-2L351.4,126.3z"/>
</g>
</svg>
