<svg xmlns="http://www.w3.org/2000/svg" viewBox="0 0 237.12 291.35">
  <defs>
    <style>
      .cls-1,
      .cls-2,
      .cls-3,
      .cls-4,
      .cls-6 {
        fill: #eee9e1;
      }

      .cls-2,
      .cls-3,
      .cls-4,
      .cls-6 {
        font-size: 43.4px;
        font-family: Boysand;
      }

      .cls-2 {
        letter-spacing: -0.44em;
      }

      .cls-3 {
        letter-spacing: 0.07em;
      }

      .cls-4 {
        letter-spacing: 0.03em;
      }

      .cls-5 {
        letter-spacing: 0.05em;
      }

      .cls-6 {
        letter-spacing: 0.02em;
      }

      .cls-7 {
        fill: none;
        stroke: #eee9e1;
        stroke-miterlimit: 10;
        stroke-width: 4px;
      }
    </style>
  </defs>

  <g id="Livello_2" data-name="Livello 2">
    <g id="Livello_1-2" data-name="Livello 1">
      <path class="cls-1"
        d="M184.8,151.5c-.1-1.7-.1-3.5-.2-5.2a56.33,56.33,0,0,0-.3-5.8c-.1-.9-.2-1.8-.3-2.8v-4a20.83,20.83,0,0,0,0-2.5V130c0-4.4.1-8.7.2-13,.2-7.7.4-15.5.5-23.3l-.2-.1c0-3.6.1-7.2.1-10.8,0-1.5-.1-2.9-.2-4.4-.1-3.7-.3-7.3-.4-11,0-1.1-.1-2.2-.1-3.4s-.1-2.3-.2-3.5a61,61,0,0,0-4.4-17.9c-.3-.7-.5-1.4-.8-2.1l-1-2c-.7-1.3-1.3-2.7-2.1-4s-1.6-2.5-2.4-3.8l-.6-.9-.3-.4-.3-.5-2.6-3.5a30.39,30.39,0,0,0-2.8-3.3L165,20.5l-.7-.8-.8-.8c-.8-.8-1.6-1.5-2.4-2.2L160,15.6l-1.3-1a83,83,0,0,0-10-6.7c-.9-.5-1.7-1-2.6-1.5a22.45,22.45,0,0,0-2.7-1.3L140.7,4c-.9-.3-1.8-.8-2.7-1-1.7-.5-3.4-1.1-5.2-1.6-1.9-.3-3.8-.6-5.6-.9-.6-.1-1.1-.1-1.7-.2L123.8.2,120.4,0h-1l-.9.1-1.7.2h-.6a8.22,8.22,0,0,0-2.7-.2l-3.8.3c-.6.1-1.3.1-1.9.2l-1.9.4c-1,.2-2,.4-2.9.6-1.2.4-2.3.9-3.5,1.4S97.2,4,96,4.5L92.6,6.3a17.4,17.4,0,0,0-3.3,1.8,96.28,96.28,0,0,0-10.4,7.7l-2.1,1.8a18.88,18.88,0,0,0-2,2c-1.3,1.5-2.6,3-3.7,4.5-.9,1.4-1.8,2.6-2.7,3.9-.2.3-.5.6-.7.9l-.6,1-1.2,2c-.5.8-1.1,1.7-1.6,2.5a16,16,0,0,0-1,2.3A26.52,26.52,0,0,1,61,41.5c-.4.8-.8,1.8-1.2,2.7a16.67,16.67,0,0,0-.8,2l-.6,2.1c-.4,1.4-.7,2.8-1.1,4.2l-.6,4.4L56.4,59a14.77,14.77,0,0,0-.1,2.1,21.75,21.75,0,0,0-.1,2.6v2.9l.2,5.2a57.81,57.81,0,0,0,.3,5.8c.1.9.2,1.8.3,2.8v4a20.83,20.83,0,0,0,0,2.5v1.2c0,4.4-.1,8.7-.2,13-.2,7.7-.3,15.5-.5,23.3l.2.1-.1,10.8c0,1.4.1,2.9.2,4.4.1,3.7.3,7.3.4,11,0,1.1.1,2.2.1,3.4s.1,2.3.2,3.4a64.16,64.16,0,0,0,4.3,17.9c.3.7.5,1.4.8,2.1l1,2c.7,1.3,1.3,2.7,2.1,4l2.4,3.8.6.9.3.4c.1.2.2.3.3.5l2.6,3.5a30.39,30.39,0,0,0,2.8,3.3l1.4,1.6.7.8.8.8c.8.8,1.6,1.5,2.4,2.2l1.2,1.3,1.3,1a96.82,96.82,0,0,0,10,6.7c.9.5,1.7,1,2.6,1.4a22.45,22.45,0,0,0,2.7,1.3l2.7,1.1c.9.4,1.8.8,2.7,1.1,1.7.5,3.4,1.1,5.2,1.6,1.8.3,3.7.6,5.6.9.6.1,1.1.1,1.7.2l1.7.1,3.4.2h.9c.6,0,2.6.1,3.2,0,.1,0-2.3.2-.8.1.1,0-1.5-.2,1.2-.1a8.85,8.85,0,0,0,2.3,0l3.8-.3c.6-.1,1.3-.1,1.9-.2l1.9-.4c1-.2,1.9-.4,2.9-.7,1.2-.4,2.3-.9,3.5-1.4s2.3-1,3.5-1.5l3.4-1.7a22.11,22.11,0,0,0,3.4-1.8,96.28,96.28,0,0,0,10.4-7.7l2.1-1.8c.7-.6,1.4-1.3,2.1-2,1.3-1.5,2.6-3,3.7-4.5.9-1.4,1.8-2.6,2.7-3.9a8.65,8.65,0,0,0,.7-1l.6-1c.4-.7.8-1.3,1.2-2s1.1-1.6,1.6-2.5a16,16,0,0,0,1-2.3,34.12,34.12,0,0,1,2.2-4.8l1.2-2.7a11.92,11.92,0,0,0,.8-2l.6-2.1c.4-1.4.7-2.8,1.1-4.2l.6-4.4.3-2.2a14.77,14.77,0,0,0,.1-2.1,22.6,22.6,0,0,0,.1-2.6v-2.9Zm-5.5-82.6a18.48,18.48,0,0,0-.1,2.4V84c0,5.7,0,11.5-.1,17.2,0,4.3-.2,8.7-.2,13,0,3,.1,5.9.1,8.9,0,1.3-.1,2.5-.1,3.8-.1,2.2,0,4.7,0,7s.1,4.7.1,7.1l.1,9.7v1.7h0v.5l-.1,2.4-.1,2.4a4.87,4.87,0,0,1-.1,1.2l-.2,1.1c-.2,1.6-.4,3.3-.7,4.9l-1.2,5a62.8,62.8,0,0,1-8.3,17.8c-1,1.5-2.1,2.9-3.2,4.3-.2.2-.3.4-.5.5-.6.7-1.2,1.4-1.9,2.1l-.9,1.1a9.43,9.43,0,0,0-1,1c-.7.6-1.4,1.3-2,1.9s-1.4,1.1-2.1,1.6c-.8.7-1.7,1.5-2.6,2.2l-.5.4c-1.7,1.1-3.4,2.1-5.1,3.1s-3.6,1.8-5.4,2.6c-1.7.6-3.4,1.4-5.1,2a44.16,44.16,0,0,1-5.2,1.4c-1.9.1-4.1.6-5.9.6s-4.4.3-6.2.3h-.7l-.9-.1-1.7-.1-1.7-.1a8.6,8.6,0,0,1-1.6-.1c-.7-.1-1.4-.1-2.1-.2l-.6-.1-3.3-.5-3.3-.9c-2.2-.5-4.3-1.3-6.4-1.9a8.49,8.49,0,0,1-2.2-.9l-2.5-1.5c-.5-.3-1-.6-1.6-.9-.7-.5-1.3-.9-1.9-1.4s-1.3-1-2-1.5-1.3-1.1-2-1.6l-2.4-1.8c-.8-.6-1.5-1.4-2.3-2l-1.3-1.1a56.31,56.31,0,0,1-9.2-12,33.71,33.71,0,0,0-1.9-3.2c-.7-1-1.1-2.2-1.7-3.2a50.14,50.14,0,0,1-2.9-6.7l-.4-1.1-.3-1.2-.7-2.3-.7-2.3-.4-2.4c-.2-1.3-.6-2.5-.8-3.8a51.73,51.73,0,0,1,.1-8.8c0-.7.1-1.6.1-2.4V134c0-5.7.1-11.5.1-17.2,0-4.3.2-8.7.2-13,0-3,0-5.9-.1-8.9,0-1.2.1-2.5.1-3.8.1-2.2,0-4.7,0-7s-.1-4.7-.1-7.1l.1-9.4V65.3l.1-2.4.1-2.4a4.87,4.87,0,0,1,.1-1.2l.2-1.1c.2-1.6.4-3.3.7-4.9l1.2-5a62.8,62.8,0,0,1,8.3-17.8c1-1.5,2.1-2.9,3.2-4.3.2-.2.3-.4.5-.5.6-.7,1.2-1.4,1.9-2.1l.9-1.1a9.43,9.43,0,0,0,1-1c.7-.6,1.4-1.3,2-1.9A17.68,17.68,0,0,1,84.2,18c.8-.7,1.7-1.5,2.6-2.2l.5-.4c1.7-1.1,3.4-2.1,5.1-3.2,1.8-.9,3.6-1.8,5.4-2.6,1.7-.6,3.4-1.4,5.1-2a30.68,30.68,0,0,1,5.2-1.4c1.9-.1,4.1-.5,5.9-.6,1.9.2,4.4-.3,6.2-.3h.8l.9.1,1.7.1,1.7.1a8.6,8.6,0,0,1,1.6.1l2.1.2.6.1,3.3.5,3.3.9c2.2.5,4.3,1.3,6.4,1.9a8.49,8.49,0,0,1,2.2.9l2.5,1.4,1.6.9c.6.5,1.3,1,1.9,1.5s1.3,1,2,1.5,1.3,1.1,2,1.6l2.4,1.8c.8.6,1.5,1.4,2.3,2l1.3,1.1A56.31,56.31,0,0,1,170,34a33.71,33.71,0,0,0,1.9,3.2c.7,1,1.1,2.2,1.7,3.2a50.14,50.14,0,0,1,2.9,6.7l.4,1.1.3,1.2.6,2.3.6,2.3.4,2.3c.2,1.3.6,2.5.8,3.8,0,2.9-.1,5.8-.3,8.8Z" />
      <path class="cls-1"
        d="M94,142.2l-6.6.6c.9,2.1,2.8,3.2,4,5.2-2.3-.7-3.2-2.8-5.5-4v9.4h-1V144c-2.5,1-3.4,3.1-5.6,3.6l4.1-4.8-7-.6v-.6l7-.5-4.1-4.7.4-.4,5,4.2v-9.7h.7c.8,3,.1,6.1.7,9.6l4.8-4.1c-.6,2.1-2.3,3.2-3.6,4.9C89.5,141.9,91.9,141,94,142.2Z" />
      <path class="cls-1"
        d="M161.6,52.7l-4,4.6c2.4,1,4.7.2,7.1.9-2.3,1.2-4.6.4-7,1.1l3.9,4.6c-2.2-.5-3.1-2.5-5.3-3.7v9.5l-1,.1v-10l-5.9,5.1c1.1-2.6,2.9-3.6,4-5.5-2.2-.9-4.6,0-7.5-1.3l7.7-.3c-1-2.2-2.9-3.3-4.2-5.4,2.4.8,3.3,2.8,5.6,4V47h1v9.4C158.4,55.3,159.4,53.2,161.6,52.7Z" />
      <text class="cls-2" transform="translate(0 282.06)">D</text><text class="cls-3"
        transform="translate(28.3 282.06)">O</text><text class="cls-3" transform="translate(53.51 282.06)">n
      </text><text class="cls-4" transform="translate(89.69 282.06)">C<tspan class="cls-5" x="22.67" y="0">a</tspan>
      </text><text class="cls-6" transform="translate(137.54 282.06)">c</text><text class="cls-3"
        transform="translate(160.34 282.06)">T</text><text class="cls-3"
        transform="translate(187.54 282.06)">u</text><text class="cls-3" transform="translate(213.07 282.06)">s</text>
      <path class="cls-1"
        d="M161.3,106.6c0-4.2.1-8.5-1.2-12.6-2.3-7.4-10.9-10-15.3-2.5-2.4,4.1-2.1,9.4-2.2,14a39.86,39.86,0,0,1-.9,9.7,5.56,5.56,0,0,1-4.4,4.3.92.92,0,0,1-1.1-.7v-.2c.1-5.8.1-11.6.4-17.4.9-15,.2-30-.3-45-.2-6.8-.4-14.4-5.5-18.5a6.34,6.34,0,0,0-4.7-2c-9.2,0-15,2.8-16.3,12.8-1.8,14.2-1.3,28.9-1,43.2.1,3.7.4,5.2.5,8.8-.1,0,.5,4.2-.7,4.5-14.4,4-11-21.2-13.3-28.7-.9-3-2.7-6-5.8-7.2a9.36,9.36,0,0,0-9.6,2.2c-.2.3-.4.5-.6.8-2,3.6-2,7.3-2.2,11.2a103.86,103.86,0,0,0,1,18.5c1,6.7,3.4,13.4,9.1,17.5s12.3,4.5,19,4.5a2.48,2.48,0,0,1,2.5,2.5v.2c-.3,3-.6,5.9-.8,8.9-.5,7.5.6,14.8.8,22.3.1,3.1-.2,6.1-.3,9.2a1.7,1.7,0,0,1,.7-.1c1.1,0,2.2-.1,3.2-.1.1-3.4.5-6.7.3-10.3-.3-5.5-.3-10.7-.2-16.3.2-12,2.1-23.7,1.6-35.8-.5-12.6-1.3-25.1-1-37.7.1-5.1.4-7.6.8-12.7.4-4.7,2.1-7.8,4.9-9.6a1.43,1.43,0,0,1,2,.4,1,1,0,0,1,.2.9c-.6,24.2-.7,45.4-1.9,69.9q-.75,15.9-.9,31.8c0,5.5-.3,10.9-.2,16.4a21.05,21.05,0,0,0,.2,2.5l4.9-.3c-.3-4.9,0-9.8.1-14.7.1-11.8.2-23.7.7-35.5.6-13.1.9-26.2.8-39.3-.2-11.4.9-22.7.9-34.1a1.45,1.45,0,0,1,1.5-1.4,1.78,1.78,0,0,1,1,.4c2.8,2.9,3,7.9,3.2,11.9.2,4.9.6,9.8.7,14.7.4,13.5-.3,27-.8,40.5-.4,11.7-.7,23.6.5,35.4a110.46,110.46,0,0,1,.3,18.2c-.1,1.3-.1,2.7-.1,4l5.1.2a22.6,22.6,0,0,1,.1-2.6,129.8,129.8,0,0,0-.2-16.5c-.2-2.3-.4-4.5-.5-6.8a1.89,1.89,0,0,1,1.8-2h.8c9.6.4,17.5-1.6,20.7-9.8C162.2,121.8,161.2,113.6,161.3,106.6Zm-53.5,12c-6,.1-12.9.3-17.8-3.2s-6.5-9.4-7.4-15c-.6-3.8-1-7.8-1.3-11.7a38.76,38.76,0,0,1,.1-6.8,1.11,1.11,0,0,1,1.2-1,1.17,1.17,0,0,1,1,1c.9,17,1.5,34.4,23.8,34.2,1.3,0,1.7.7,1.7,1.1a1.19,1.19,0,0,1-1.3,1.4Zm.5-7.4h-.9c-20.8,1.6-19.5-20.3-20.3-35.6a1.2,1.2,0,0,1,1.1-1.2,1.09,1.09,0,0,1,.9.4c1.4,1.7,1.9,4.6,2.3,7.6.7,4.8.7,9.7,1.5,14.5,1.2,7.1,6.8,11.9,15.2,11.4a1,1,0,0,1,1.1.9v1a.83.83,0,0,1-.9,1ZM136,125.1c-.1-1.1,2.7-1.4,3.5-1.7a7,7,0,0,0,2.7-1.4c1.9-1.6,2.6-4.1,3.1-6.4.1-.9.3-1.8.4-2.7.2-1.9-.1-9.9,1.6-15.7a.83.83,0,0,1,1.1-.6,1,1,0,0,1,.7.8,111.86,111.86,0,0,1,.3,18.3,9.48,9.48,0,0,1-3.8,7.3,16.46,16.46,0,0,1-7.8,2.6C137.2,125.7,136.1,126,136,125.1Zm20.8-10.4c.3,6.2-.6,12.7-6.6,16.3a19.8,19.8,0,0,1-5.1,2.4,18,18,0,0,1-3.2.6c-1.4.2-3.9.7-4.9-.6a2,2,0,0,1,.1-2.2c.9-1,3-.7,4.2-1a27.69,27.69,0,0,0,4.1-1.2,13.22,13.22,0,0,0,6.4-5.5c2.2-3.8,1.9-8.2,1.9-12.4,0-5.5-.1-9.6-.2-15.1.1-2.7,1.4-2.4,2.6,0,2.5,4.9.5,15.1.7,18.7Z" />
      <path class="cls-7"
        d="M97.9,210.4C92,207.9,90,199.9,90,195.7V171.6a4.89,4.89,0,0,1,4.8-4.9h53.5a4.91,4.91,0,0,1,4.9,4.9v24.1c0,5.1-4.2,11.5-8.1,14.1" />
    </g>
  </g>
</svg>